# xmcd
#
# Track frame offsets:
#	150
#	12280
#	30440
#	47906
#	71287
#	94791
#	112413
#	131900
#	147008
#	162507
#	179179
#	198135
#
# Disc length: 2912 seconds
#
# Revision: 1
# Processed by: cddbd v1.5.1PL0 Copyright (c) Steve Scherf et al.
# Submitted via: audiograbber 1.83.01
#
DISCID=ad0b5e0c
DTITLE=Brandon Rhyder - Behind The Pine Curtain
DYEAR=2003
DGENRE=Texas Music 
TTITLE0=Brandon Rhyder - Black Cat
TTITLE1=Brandon Rhyder - The Good Old Days
TTITLE2=Brandon Rhyder - The Redneck Song
TTITLE3=Brandon Rhyder - Learnin' To Crawl
TTITLE4=Brandon Rhyder - Questions
TTITLE5=Brandon Rhyder - Crazy Loco
TTITLE6=Brandon Rhyder - Nowhere Man
TTITLE7=Brandon Rhyder - Rumorville
TTITLE8=Brandon Rhyder - Walking Shoes
TTITLE9=Brandon Rhyder - I Can't Write You A Song
TTITLE10=Brandon Rhyder - One Piece At A Time
TTITLE11=Brandon Rhyder - Up In Flames
EXTD=
EXTT0=
EXTT1=
EXTT2=
EXTT3=
EXTT4=
EXTT5=
EXTT6=
EXTT7=
EXTT8=
EXTT9=
EXTT10=
EXTT11=
PLAYORDER=
